<?xml version="1.0" encoding="UTF-8"?>
<!DOCTYPE svg PUBLIC "-//W3C//DTD SVG 1.1//EN" "http://www.w3.org/Graphics/SVG/1.1/DTD/svg11.dtd">
<svg xmlns="http://www.w3.org/2000/svg" version="1.1" width="80px" height="53px" style="shape-rendering:geometricPrecision; text-rendering:geometricPrecision; image-rendering:optimizeQuality; fill-rule:evenodd; clip-rule:evenodd" xmlns:xlink="http://www.w3.org/1999/xlink">
<g><path style="opacity:1" fill="#fefefe" d="M -0.5,-0.5 C 26.1667,-0.5 52.8333,-0.5 79.5,-0.5C 79.5,1.16667 79.5,2.83333 79.5,4.5C 52.8333,4.5 26.1667,4.5 -0.5,4.5C -0.5,2.83333 -0.5,1.16667 -0.5,-0.5 Z"/></g>
<g><path style="opacity:1" fill="#e62f2d" d="M -0.5,4.5 C 26.1667,4.5 52.8333,4.5 79.5,4.5C 79.5,6.5 79.5,8.5 79.5,10.5C 52.8333,10.5 26.1667,10.5 -0.5,10.5C -0.5,8.5 -0.5,6.5 -0.5,4.5 Z"/></g>
<g><path style="opacity:1" fill="#fefcfc" d="M -0.5,10.5 C 26.1667,10.5 52.8333,10.5 79.5,10.5C 79.5,20.8333 79.5,31.1667 79.5,41.5C 52.8333,41.5 26.1667,41.5 -0.5,41.5C -0.5,31.1667 -0.5,20.8333 -0.5,10.5 Z"/></g>
<g><path style="opacity:1" fill="#e42222" d="M 22.5,12.5 C 26.9659,12.1562 30.9659,13.3229 34.5,16C 24.2673,13.9002 19.1006,18.0669 19,28.5C 20.5844,33.4234 23.9177,36.0901 29,36.5C 31.6222,36.0747 34.1222,35.5747 36.5,35C 25.9089,42.5446 18.0755,40.3779 13,28.5C 12.3113,20.8775 15.4779,15.5441 22.5,12.5 Z"/></g>
<g><path style="opacity:1" fill="#e31c1e" d="M 41.5,20.5 C 42.2674,21.172 42.9341,22.0053 43.5,23C 45.2072,23.1953 46.8739,23.1953 48.5,23C 45.8333,25 45.8333,27 48.5,29C 46.8739,28.8047 45.2072,28.8047 43.5,29C 42.8742,29.7504 42.3742,30.5838 42,31.5C 41.7934,28.5774 40.2934,26.7441 37.5,26C 40.4256,25.313 41.7589,23.4797 41.5,20.5 Z"/></g>
<g><path style="opacity:1" fill="#e62f2d" d="M -0.5,41.5 C 26.1667,41.5 52.8333,41.5 79.5,41.5C 79.5,43.5 79.5,45.5 79.5,47.5C 52.8333,47.5 26.1667,47.5 -0.5,47.5C -0.5,45.5 -0.5,43.5 -0.5,41.5 Z"/></g>
<g><path style="opacity:1" fill="#fefefe" d="M -0.5,47.5 C 26.1667,47.5 52.8333,47.5 79.5,47.5C 79.5,49.1667 79.5,50.8333 79.5,52.5C 52.8333,52.5 26.1667,52.5 -0.5,52.5C -0.5,50.8333 -0.5,49.1667 -0.5,47.5 Z"/></g>
</svg>
