<?xml version="1.0" standalone="no"?>
<!DOCTYPE svg PUBLIC "-//W3C//DTD SVG 20010904//EN"
 "http://www.w3.org/TR/2001/REC-SVG-20010904/DTD/svg10.dtd">
<svg version="1.0" xmlns="http://www.w3.org/2000/svg"
 width="81.000000pt" height="93.000000pt" viewBox="0 0 81.000000 93.000000"
 preserveAspectRatio="xMidYMid meet">

<g transform="translate(0.000000,93.000000) scale(0.100000,-0.100000)"
fill="#000000" stroke="none">
<path d="M23 630 c-1 -168 1 -313 5 -322 6 -16 5 415 -1 562 -2 36 -4 -72 -4
-240z"/>
<path d="M794 640 c0 -162 2 -229 3 -147 2 81 2 213 0 295 -1 81 -3 14 -3
-148z"/>
<path d="M42 613 c3 -295 4 -310 26 -357 28 -61 22 -72 -7 -14 -12 24 -19 32
-15 18 9 -38 73 -127 114 -160 45 -36 137 -80 165 -79 11 0 2 6 -20 13 -23 7
-50 18 -60 25 -17 10 -17 12 -2 7 144 -45 218 -45 315 -1 30 14 57 23 60 20 3
-3 -19 -16 -49 -30 -30 -14 -43 -22 -29 -19 91 24 212 144 234 234 4 14 -5 1
-19 -29 -14 -30 -27 -52 -30 -49 -3 3 7 32 22 64 l28 59 3 303 3 302 -371 0
-371 0 3 -307z m723 7 c0 -247 -2 -292 -18 -335 -41 -115 -138 -201 -260 -231
-163 -41 -330 44 -405 204 l-27 57 -3 298 -3 297 358 -2 358 -3 0 -285z m-555
-533 c14 -9 20 -16 13 -16 -15 -1 -133 107 -133 121 0 6 21 -12 48 -39 26 -27
58 -57 72 -66z m510 98 c0 -10 -82 -95 -92 -95 -5 0 13 22 39 50 49 51 53 54
53 45z"/>
<path d="M70 750 l0 -140 340 0 341 0 -3 138 -3 137 -337 3 -338 2 0 -140z
m162 43 l2 -48 3 48 4 47 50 0 49 0 0 -49 c0 -67 -17 -109 -51 -126 -80 -42
-149 18 -149 130 l0 45 45 0 45 0 2 -47z m228 -48 l0 -95 -45 0 -45 0 0 95 0
95 45 0 45 0 0 -95z m122 48 l2 -48 3 48 4 47 45 0 44 0 0 -66 c0 -59 -3 -68
-29 -95 -32 -31 -64 -36 -106 -17 -37 17 -55 57 -55 123 l0 55 45 0 45 0 2
-47z"/>
<path d="M693 532 c1 -14 7 -17 31 -13 18 2 24 6 16 9 -8 3 -23 9 -32 13 -13
7 -16 5 -15 -9z"/>
<path d="M72 523 c2 -12 14 -19 33 -20 17 -1 23 0 15 3 -44 16 -44 17 -15 24
l30 8 -33 1 c-27 1 -33 -3 -30 -16z"/>
<path d="M230 416 l0 -114 90 -4 c49 -2 130 -2 180 0 l90 4 0 114 c0 69 -4
114 -10 114 -6 0 -10 -43 -10 -107 l0 -108 -93 3 c-149 4 -187 3 -207 -3 -19
-6 -20 -1 -20 104 0 67 -4 111 -10 111 -6 0 -10 -45 -10 -114z"/>
<path d="M683 486 c0 -11 8 -13 31 -9 38 7 46 13 18 13 -11 0 -27 2 -35 5 -8
4 -14 0 -14 -9z"/>
<path d="M80 480 c10 -6 11 -10 3 -10 -7 0 -13 -4 -13 -10 0 -5 15 -10 33 -9
17 0 26 3 19 6 -10 4 -10 8 -1 19 9 12 6 14 -22 14 -26 0 -30 -3 -19 -10z"/>
<path d="M703 453 c9 -2 25 -2 35 0 9 3 1 5 -18 5 -19 0 -27 -2 -17 -5z"/>
<path d="M83 433 c9 -2 25 -2 35 0 9 3 1 5 -18 5 -19 0 -27 -2 -17 -5z"/>
<path d="M686 431 c-13 -20 10 -37 29 -21 12 10 15 10 15 -1 0 -10 3 -10 12
-1 18 18 -6 40 -26 23 -11 -9 -15 -9 -18 1 -3 9 -6 9 -12 -1z"/>
<path d="M95 410 l-30 -8 28 -1 c34 -1 36 -21 2 -21 -16 0 -25 -6 -25 -16 0
-13 3 -14 14 -5 11 9 15 9 19 -1 4 -11 6 -10 6 0 1 7 6 10 11 7 6 -4 10 7 10
24 0 17 -1 30 -2 30 -2 -1 -16 -5 -33 -9z"/>
<path d="M687 383 c-3 -5 -4 -21 -3 -38 1 -25 6 -31 29 -33 21 -3 27 1 27 15
0 15 -2 16 -11 3 -8 -11 -12 -12 -16 -2 -2 6 -9 10 -14 6 -5 -3 -9 0 -9 5 0 6
12 11 28 12 15 0 21 3 15 6 -18 7 -16 21 5 26 9 3 3 5 -15 6 -17 0 -34 -2 -36
-6z"/>
<path d="M93 333 c-7 -2 -13 -11 -13 -19 0 -22 54 -14 58 9 3 17 -17 22 -45
10z m32 -13 c-3 -5 -14 -10 -23 -10 -15 0 -15 2 -2 10 20 13 33 13 25 0z"/>
<path d="M675 300 c3 -5 11 -10 16 -10 6 0 7 5 4 10 -3 6 -11 10 -16 10 -6 0
-7 -4 -4 -10z"/>
<path d="M666 278 c3 -4 16 -8 30 -8 13 0 24 4 24 8 0 5 -13 9 -30 9 -16 0
-27 -4 -24 -9z"/>
<path d="M120 265 c-14 -8 -19 -14 -10 -14 8 0 24 6 34 14 25 19 9 19 -24 0z"/>
<path d="M655 260 c3 -5 1 -10 -5 -10 -6 0 -8 -4 -5 -10 3 -5 1 -10 -6 -10 -7
0 -5 -8 6 -20 22 -24 43 -27 24 -3 -12 15 -12 16 4 10 9 -3 17 -4 17 0 0 3 -8
12 -17 20 -16 13 -16 14 7 8 24 -6 24 -5 6 9 -22 18 -40 21 -31 6z"/>
<path d="M134 245 c-10 -8 -14 -15 -7 -15 8 0 10 -7 6 -17 -7 -17 -6 -17 19
-1 32 21 44 12 21 -15 -17 -19 -17 -20 4 -8 32 17 38 14 18 -9 -15 -16 -16
-23 -6 -33 10 -9 12 -9 9 3 -2 8 3 14 10 12 8 -1 11 2 7 8 -3 5 1 10 10 10 11
0 6 9 -16 28 -18 15 -37 26 -42 24 -5 -2 -7 4 -4 13 8 19 -4 19 -29 0z"/>
<path d="M623 204 c23 -28 22 -41 -3 -19 -29 26 -35 13 -6 -14 19 -18 25 -19
34 -8 9 11 6 19 -16 38 -20 18 -22 18 -9 3z"/>
<path d="M226 148 c-9 -12 -13 -24 -10 -27 3 -3 9 1 14 8 6 11 9 10 12 -5 4
-18 5 -17 16 4 23 40 -6 58 -32 20z"/>
<path d="M559 142 c13 -25 28 -35 34 -25 3 5 -6 16 -20 27 -25 18 -25 18 -14
-2z"/>
<path d="M272 125 c-16 -35 -15 -40 5 -24 11 10 14 10 9 2 -4 -7 -3 -13 2 -13
5 0 14 11 20 25 7 15 8 25 2 25 -6 0 -10 -6 -11 -12 0 -7 -4 -5 -8 5 -6 17 -8
16 -19 -8z"/>
<path d="M520 133 c0 -21 20 -55 20 -36 0 7 7 10 16 6 15 -5 15 -3 -1 20 -20
31 -35 35 -35 10z"/>
<path d="M494 125 c5 -15 4 -16 -9 -5 -12 10 -15 9 -15 -6 0 -21 20 -57 20
-37 0 7 6 10 14 7 10 -4 12 2 9 21 -3 14 -10 28 -16 32 -7 4 -8 0 -3 -12z"/>
<path d="M334 114 c3 -8 2 -13 -3 -10 -5 3 -12 -2 -15 -11 -4 -10 -4 -14 0
-10 4 4 13 2 21 -4 10 -9 13 -5 13 20 0 17 -5 31 -11 31 -6 0 -8 -7 -5 -16z"/>
<path d="M365 100 c0 -16 3 -30 8 -30 4 0 7 6 7 14 0 8 3 21 6 30 4 10 1 16
-7 16 -9 0 -14 -11 -14 -30z"/>
<path d="M425 120 c-10 -17 4 -62 18 -57 15 5 16 59 0 64 -6 2 -14 -1 -18 -7z
m25 -32 c0 -19 -2 -20 -10 -8 -13 19 -13 30 0 30 6 0 10 -10 10 -22z"/>
<path d="M402 90 c0 -19 2 -27 5 -17 2 9 2 25 0 35 -3 9 -5 1 -5 -18z"/>
<path d="M782 320 c0 -14 2 -19 5 -12 2 6 2 18 0 25 -3 6 -5 1 -5 -13z"/>
<path d="M410 20 l-65 -7 60 0 c33 -1 71 3 85 7 30 10 15 10 -80 0z"/>
</g>
</svg>
