<?xml version="1.0" encoding="UTF-8"?>
<!DOCTYPE svg PUBLIC "-//W3C//DTD SVG 1.1//EN" "http://www.w3.org/Graphics/SVG/1.1/DTD/svg11.dtd">
<svg xmlns="http://www.w3.org/2000/svg" version="1.1" width="48px" height="32px" style="shape-rendering:geometricPrecision; text-rendering:geometricPrecision; image-rendering:optimizeQuality; fill-rule:evenodd; clip-rule:evenodd" xmlns:xlink="http://www.w3.org/1999/xlink">
<g><path style="opacity:1" fill="#fde416" d="M -0.5,-0.5 C 7.5,-0.5 15.5,-0.5 23.5,-0.5C 23.5,10.1667 23.5,20.8333 23.5,31.5C 15.5,31.5 7.5,31.5 -0.5,31.5C -0.5,20.8333 -0.5,10.1667 -0.5,-0.5 Z"/></g>
<g><path style="opacity:1" fill="#fafafa" d="M 23.5,-0.5 C 31.5,-0.5 39.5,-0.5 47.5,-0.5C 47.5,10.1667 47.5,20.8333 47.5,31.5C 39.5,31.5 31.5,31.5 23.5,31.5C 23.5,20.8333 23.5,10.1667 23.5,-0.5 Z"/></g>
<g><path style="opacity:1" fill="#a9998a" d="M 33.5,7.5 C 35.7373,8.44896 38.0706,9.11562 40.5,9.5C 40.5,10.8333 40.5,12.1667 40.5,13.5C 35.1902,14.7494 35.1902,16.2494 40.5,18C 38.5188,18.6054 38.1854,19.6054 39.5,21C 37.8866,21.0885 36.7199,20.2552 36,18.5C 36.5356,20.447 36.2022,22.447 35,24.5C 34.5172,23.552 34.3505,22.552 34.5,21.5C 32.8333,21.5 31.1667,21.5 29.5,21.5C 29.5,20.1667 29.5,18.8333 29.5,17.5C 33.5362,17.4276 34.3696,15.7609 32,12.5C 31.586,12.9574 31.086,13.2907 30.5,13.5C 29.5713,12.3112 29.238,10.9778 29.5,9.5C 31.4832,9.84316 32.8166,9.17649 33.5,7.5 Z"/></g>
</svg>
